HIERARCHY
ROOT SpineBase
{
  OFFSET 0.000000 0.000000 0.000000
  CHANNELS 6 Xposition Yposition Zposition Zrotation Xrotation Yrotation
  JOINT SpineMid
  {
    OFFSET 0.000000 27.314866 0.000000
    CHANNELS 3 Zrotation Xrotation Yrotation
    JOINT SpineShoulder
    {
      OFFSET -0.093464 20.444343 -0.531062
      CHANNELS 3 Zrotation Xrotation Yrotation
      JOINT Neck
      {
        OFFSET -0.033914 6.815610 -0.447946
        CHANNELS 3 Zrotation Xrotation Yrotation
        JOINT Head
        {
          OFFSET -2.940934 11.534950 2.329353
          CHANNELS 3 Zrotation Xrotation Yrotation
          End Site
          {
            OFFSET 0 0 0
          }
        }
      }
      JOINT ShoulderLeft
      {
        OFFSET -12.837882 -3.997457 4.324637
        CHANNELS 3 Zrotation Xrotation Yrotation
        JOINT ElbowLeft
        {
          OFFSET -0.573577 -23.261622 1.314705
          CHANNELS 3 Zrotation Xrotation Yrotation
          JOINT WristLeft
          {
            OFFSET -1.950649 -22.439276 -4.699755
            CHANNELS 3 Zrotation Xrotation Yrotation
            JOINT HandLeft
            {
              OFFSET 0.908409 -5.057557 -0.927273
              CHANNELS 3 Zrotation Xrotation Yrotation
              JOINT HandTipLeft
              {
                OFFSET 0.039651 -5.537027 0.438544
                CHANNELS 3 Zrotation Xrotation Yrotation
                End Site
                {
                  OFFSET 0 0 0
                }
              }
              JOINT ThumbLeft
              {
                OFFSET 3.104031 -0.068360 -3.649257
                CHANNELS 3 Zrotation Xrotation Yrotation
                End Site
                {
                  OFFSET 0 0 0
                }
              }
            }
          }
        }
      }
      JOINT ShoulderRight
      {
        OFFSET 11.680507 -2.137951 -7.140092
        CHANNELS 3 Zrotation Xrotation Yrotation
        JOINT ElbowRight
        {
          OFFSET 5.511146 -22.750011 -2.466471
          CHANNELS 3 Zrotation Xrotation Yrotation
          JOINT WristRight
          {
            OFFSET -0.409517 -19.237440 -6.285028
            CHANNELS 3 Zrotation Xrotation Yrotation
            JOINT HandRight
            {
              OFFSET -1.122538 -6.184197 -0.559580
              CHANNELS 3 Zrotation Xrotation Yrotation
              JOINT HandTipRight
              {
                OFFSET 0.107396 -6.186060 -1.601222
                CHANNELS 3 Zrotation Xrotation Yrotation
                End Site
                {
                  OFFSET 0 0 0
                }
              }
              JOINT ThumbRight
              {
                OFFSET -3.214269 0.922238 -0.184380
                CHANNELS 3 Zrotation Xrotation Yrotation
                End Site
                {
                  OFFSET 0 0 0
                }
              }
            }
          }
        }
      }
    }
  }
  JOINT HipLeft
  {
    OFFSET -5.357781 0.491189 -1.430300
    CHANNELS 3 Zrotation Xrotation Yrotation
    JOINT KneeLeft
    {
      OFFSET 5.459831 -29.048604 -1.217076
      CHANNELS 3 Zrotation Xrotation Yrotation
      JOINT AnkleLeft
      {
        OFFSET 5.055101 -32.344549 3.356668
        CHANNELS 3 Zrotation Xrotation Yrotation
        JOINT FootLeft
        {
          OFFSET -2.173584 -2.108271 -9.307744
          CHANNELS 3 Zrotation Xrotation Yrotation
          End Site
          {
            OFFSET 0 0 0
          }
        }
      }
    }
  }
  JOINT HipRight
  {
    OFFSET 4.858786 1.662383 -4.465521
    CHANNELS 3 Zrotation Xrotation Yrotation
    JOINT KneeRight
    {
      OFFSET 8.149291 -26.735247 -4.696139
      CHANNELS 3 Zrotation Xrotation Yrotation
      JOINT AnkleRight
      {
        OFFSET 4.531841 -34.154546 2.722760
        CHANNELS 3 Zrotation Xrotation Yrotation
        JOINT FootRight
        {
          OFFSET -5.598888 -6.100195 0.992784
          CHANNELS 3 Zrotation Xrotation Yrotation
          End Site
          {
            OFFSET 0 0 0
          }
        }
      }
    }
  }
}
MOTION
Frames: 13
Frame Time: 0.033333
25.723516 72.043616 357.249496 -0.000000 0.000000 16.546059 -0.000000 0.000000 -16.546059 -0.000000 0.000000 0.000000 -0.000000 0.000000 0.000000 0.000000 0.000000 0.000000 -0.000000 0.000000 0.000000 -0.000000 0.000000 0.000000 -0.000000 0.000000 0.000000 -0.000000 0.000000 0.000000 0.000000 0.000000 0.000000 0.000000 0.000000 0.000000 -0.000000 0.000000 0.000000 -0.000000 0.000000 0.000000 -0.000000 0.000000 0.000000 -0.000000 0.000000 0.000000 0.000000 0.000000 0.000000 0.000000 0.000000 0.000000 -0.000000 0.000000 -16.546059 -0.000000 0.000000 0.000000 -0.000000 0.000000 0.000000 0.000000 0.000000 0.000000 -0.000000 0.000000 -16.546059 -0.000000 0.000000 0.000000 -0.000000 0.000000 0.000000 0.000000 0.000000 0.000000
25.726727 72.042747 357.269971 -0.028370 0.011709 16.412627 0.023906 -0.019248 -16.412621 -0.000000 0.000000 0.000000 -0.000000 0.000000 0.000000 0.000000 0.000000 0.000000 -0.000000 0.000000 0.000000 -0.000000 0.000000 0.000000 -0.377330 1.109301 0.271765 0.372134 -1.111054 -0.264503 0.000000 0.000000 0.000000 0.000000 0.000000 0.000000 -0.000000 0.000000 0.000000 -0.000000 0.000000 0.000000 -0.000000 0.000000 0.000000 0.820061 -1.044067 -0.223424 0.000000 0.000000 0.000000 0.000000 0.000000 0.000000 0.023906 -0.019248 -16.412621 -0.000000 0.000000 0.000000 0.248964 -0.532534 -0.561732 0.000000 0.000000 0.000000 0.023906 -0.019248 -16.412621 -0.000000 0.000000 0.000000 3.476977 6.730571 -6.043859 0.000000 0.000000 0.000000
25.730874 72.042458 357.291489 -0.052904 0.023971 16.276007 0.044066 -0.037838 -16.275981 -0.000000 0.000000 0.000000 -0.000000 0.000000 0.000000 0.000000 0.000000 0.000000 -0.000000 0.000000 0.000000 -0.000000 0.000000 0.000000 -0.855358 1.906901 0.512721 0.838731 -1.914271 -0.484473 0.000000 0.000000 0.000000 0.000000 0.000000 0.000000 -0.000000 0.000000 0.000000 -0.000000 0.000000 0.000000 -0.000000 0.000000 0.000000 1.486462 -1.825149 -0.394328 0.000000 0.000000 0.000000 0.000000 0.000000 0.000000 0.044066 -0.037838 -16.275981 -0.000000 0.000000 0.000000 0.446536 -0.977132 -1.001895 0.000000 0.000000 0.000000 0.848934 1.117309 -15.956679 -0.456449 -1.331837 -0.332190 7.343032 12.901228 -12.442379 0.000000 0.000000 0.000000
25.735958 72.042747 357.314050 -0.073613 0.036790 16.136067 0.060488 -0.055799 -16.136014 -0.000000 0.000000 0.000000 -0.000000 0.000000 0.000000 0.000000 0.000000 0.000000 -0.000000 0.000000 0.000000 -0.000000 0.000000 0.000000 -1.426200 2.405237 0.722343 1.397021 -2.422294 -0.662865 0.000000 0.000000 0.000000 0.000000 0.000000 0.000000 -0.000000 0.000000 0.000000 0.646859 0.632625 -0.227991 -0.363490 -1.590220 0.374967 1.726593 -1.401377 -0.701970 0.000000 0.000000 0.000000 0.000000 0.000000 0.000000 0.060488 -0.055799 -16.136014 -0.000000 0.000000 0.000000 0.592077 -1.325977 -1.314079 0.000000 0.000000 0.000000 1.115381 1.490549 -15.711377 -0.597101 -1.774073 -0.447091 11.011514 17.905144 -18.476174 0.000000 0.000000 0.000000
25.741979 72.043616 357.337653 -0.090505 0.050168 15.992671 0.073180 -0.073162 -15.992585 -0.000000 0.000000 0.000000 -0.000000 0.000000 0.000000 0.000000 0.000000 0.000000 -0.000000 0.000000 0.000000 0.276102 0.871985 -0.135544 -2.361424 1.740641 0.998409 2.475517 -1.617391 -0.747407 0.000000 0.000000 0.000000 0.000000 0.000000 0.000000 -0.000000 0.000000 0.000000 0.834084 0.775144 -0.294045 -0.756328 -1.955674 0.492179 2.317800 -1.466343 -0.869598 0.000000 0.000000 0.000000 0.000000 0.000000 0.000000 0.073180 -0.073162 -15.992585 -0.000000 0.000000 0.000000 0.685240 -1.573055 -1.493645 0.000000 0.000000 0.000000 1.266159 1.720619 -15.500933 -0.397051 -2.871762 -0.595668 13.568993 22.336445 -23.522045 0.000000 0.000000 0.000000
25.748937 72.045063 357.362300 -0.103589 0.064109 15.845672 0.082148 -0.089957 -15.845549 -0.000000 0.000000 0.000000 -0.000000 0.000000 0.000000 0.000000 0.000000 0.000000 -0.000000 0.000000 0.000000 0.433148 1.040508 -0.184817 -3.253626 1.507754 1.164846 2.830060 -0.461914 -0.894675 0.000000 0.000000 0.000000 0.000000 0.000000 0.000000 -0.000000 0.000000 0.000000 1.006286 0.882802 -0.354489 -1.290756 -2.234963 0.602198 2.934007 -1.344712 -1.009628 0.000000 0.000000 0.000000 0.000000 0.000000 0.000000 0.082148 -0.089957 -15.845549 -0.000000 0.000000 0.000000 0.725881 -1.714323 -1.537827 0.000000 0.000000 0.000000 1.298116 1.799047 -15.326009 -0.367289 -3.009655 -0.625934 14.940165 24.674213 -26.833690 0.000000 0.000000 0.000000
25.756538 72.051109 357.387078 -0.116041 0.089363 15.731961 0.087465 -0.117478 -15.731781 -0.000000 0.000000 0.000000 -0.000000 0.000000 0.000000 0.000000 0.000000 0.000000 -0.000000 0.000000 0.000000 0.603754 0.830615 -0.202821 -4.571459 1.929314 1.459633 3.390434 2.735738 -1.140121 0.000000 0.000000 0.000000 0.000000 0.000000 0.000000 -0.000000 0.000000 0.000000 1.105011 1.010143 -0.391225 -1.820797 -2.908158 0.755927 3.401622 -0.124481 -1.190407 0.000000 0.000000 0.000000 0.000000 0.000000 0.000000 0.087465 -0.117478 -15.731781 -0.000000 0.000000 0.000000 0.471194 -1.439421 -0.627731 0.000000 0.000000 0.000000 0.974422 0.980204 -15.441781 -0.562838 -1.294140 -0.303035 14.846187 25.876971 -29.199121 0.000000 0.000000 0.000000
25.759287 72.055419 357.423899 -0.127937 0.096100 15.438626 0.097738 -0.126690 -15.438410 -0.000000 0.000000 0.000000 -0.000000 0.000000 0.000000 0.000000 0.000000 0.000000 -0.000000 0.000000 0.000000 0.846177 0.925973 -0.264286 -5.780235 0.917791 1.496296 3.915841 4.904092 -1.176253 0.000000 0.000000 0.000000 0.000000 0.000000 0.000000 -0.000000 0.000000 0.000000 1.170767 1.099551 -0.415939 -2.915956 -2.927066 0.818899 4.142333 0.791225 -1.200475 0.000000 0.000000 0.000000 0.000000 0.000000 0.000000 0.097738 -0.126690 -15.438410 -0.000000 0.000000 0.000000 -0.320060 -0.205847 1.632815 0.000000 0.000000 0.000000 0.939756 1.079156 -15.110086 -0.498747 -1.383576 -0.341345 10.276326 24.391202 -25.934881 0.000000 0.000000 0.000000
25.752053 72.052619 357.479306 -0.155679 0.074914 15.150346 0.130690 -0.112997 -15.150115 -0.000000 0.000000 0.000000 -0.000000 0.000000 0.000000 0.000000 0.000000 0.000000 -0.000000 0.000000 0.000000 1.125970 1.138097 -0.345531 -7.220043 -0.046936 1.591224 6.451889 5.782553 -1.210623 0.000000 0.000000 0.000000 0.000000 0.000000 0.000000 -0.000000 0.000000 0.000000 1.397451 1.013471 -0.489227 -4.063202 -1.772472 0.772243 5.218135 0.403453 -1.076108 0.000000 0.000000 0.000000 0.000000 0.000000 0.000000 0.130690 -0.112997 -15.150115 -0.000000 0.000000 0.000000 0.815328 -2.101903 -1.554634 0.000000 0.000000 0.000000 1.139421 1.738575 -14.627604 -0.080949 -2.814547 -0.594459 6.884856 18.431466 -17.670395 0.000000 0.000000 0.000000
25.777637 72.045547 357.487517 -0.125473 0.109083 15.212788 0.092453 -0.138185 -15.212557 -0.000000 0.000000 0.000000 -0.000000 0.000000 0.000000 0.000000 0.000000 0.000000 -0.000000 0.000000 0.000000 1.190061 1.172479 -0.362912 -7.621817 -0.072889 1.665197 5.401496 7.790028 -1.298755 0.000000 0.000000 0.000000 0.000000 0.000000 0.000000 -0.000000 0.000000 0.000000 1.594124 0.918430 -0.551890 -5.770276 -0.232760 0.726226 6.957735 -0.517048 -0.899341 0.000000 0.000000 0.000000 0.000000 0.000000 0.000000 0.092453 -0.138185 -15.212557 -0.000000 0.000000 0.000000 0.687700 -1.796258 -1.268933 0.000000 0.000000 0.000000 1.159581 2.284410 -14.507307 0.066197 -3.587659 -0.796530 4.757147 21.863211 -20.785887 0.000000 0.000000 0.000000
25.831904 72.040082 357.448235 -0.046669 0.193956 15.523529 -0.006943 -0.199371 -15.523462 -0.000000 0.000000 0.000000 -0.535032 -0.631626 -0.056074 0.000000 0.000000 0.000000 -0.402023 -0.732764 -0.007221 1.882074 2.322313 -0.484642 -8.242491 -1.482637 1.529014 6.117077 7.436248 -1.235477 0.000000 0.000000 0.000000 0.000000 0.000000 0.000000 -0.000000 0.000000 0.000000 1.828451 0.794784 -0.625811 -7.058788 0.790417 0.769104 8.070638 -2.560732 -0.743135 0.000000 0.000000 0.000000 0.000000 0.000000 0.000000 -0.006943 -0.199371 -15.523462 -0.000000 0.000000 0.000000 0.291397 -0.930722 -0.337525 0.000000 0.000000 0.000000 0.708695 2.192999 -14.786373 0.412349 -3.505383 -0.818095 5.334729 10.926571 -9.232170 0.000000 0.000000 0.000000
25.901679 72.036759 357.385997 0.057740 0.307389 15.957603 -0.140026 -0.279669 -15.958100 -0.000000 0.000000 0.000000 -0.800351 -0.689620 -0.019076 0.000000 0.000000 0.000000 -0.000000 0.000000 0.000000 1.714767 1.825083 -0.544045 -9.382746 -2.362373 1.549694 9.440415 4.740686 -1.276552 0.000000 0.000000 0.000000 0.000000 0.000000 0.000000 -0.000000 0.000000 0.000000 1.934775 0.710351 -0.658180 -7.799363 0.904894 0.861608 9.331855 -4.205225 -0.899908 0.000000 0.000000 0.000000 0.000000 0.000000 0.000000 -0.140026 -0.279669 -15.958100 -0.000000 0.000000 0.000000 -0.376870 0.400029 1.229562 0.000000 0.000000 0.000000 -0.029802 1.503916 -15.360753 0.799345 -2.599995 -0.653543 5.310951 3.580305 -1.801504 0.000000 0.000000 0.000000
25.978632 72.027333 357.305253 0.172060 0.426232 16.410684 -0.285474 -0.360254 -16.412222 -0.000000 0.000000 0.000000 -0.989529 -0.630655 0.033702 0.000000 0.000000 0.000000 -0.000000 0.000000 0.000000 1.839957 2.001299 -0.590190 -10.457608 -2.849844 1.626172 8.966660 2.758372 -1.482592 0.000000 0.000000 0.000000 0.000000 0.000000 0.000000 -0.000000 0.000000 0.000000 1.957828 0.555585 -0.660208 -7.961505 1.987209 0.777242 9.689128 -6.243721 -0.662313 0.000000 0.000000 0.000000 0.000000 0.000000 0.000000 -0.285474 -0.360254 -16.412222 -0.000000 0.000000 0.000000 -1.301872 2.064187 3.337372 0.000000 0.000000 0.000000 -0.083202 1.972352 -15.635595 0.820887 -3.407795 -0.865579 4.222271 15.499365 -13.815387 0.000000 0.000000 0.000000
